<svg xmlns="http://www.w3.org/2000/svg" viewBox="0 0 128 128" width="128" height="128">
  <defs>
    <linearGradient id="bg" x1="0" y1="0" x2="0" y2="1">
      <stop offset="0" stop-color="#2a2118"/>
      <stop offset="1" stop-color="#1c1c1e"/>
    </linearGradient>
    <linearGradient id="a" x1="0" y1="0" x2="1" y2="1">
      <stop offset="0" stop-color="#ffb800"/>
      <stop offset="1" stop-color="#ff8a00"/>
    </linearGradient>
  </defs>
  <rect width="128" height="128" rx="24" fill="url(#bg)"/>
  
  <circle cx="64" cy="98" r="34" fill="#ffb800" opacity="0.1"/>
  <rect x="26" y="30" width="13" height="30" rx="4" fill="#3a3a3c"/>
  <rect x="24" y="26" width="17" height="7" rx="3.5" fill="url(#a)"/>
  <path d="M16 100V60l12 9V60l12 9V54h60v46z" fill="#333336"/>
  <path d="M16 100V60l12 9V60l12 9V54h60v8H44v38z" fill="#3f3f43"/>
  <rect x="24" y="76" width="11" height="10" rx="2.5" fill="url(#a)" opacity="0.85"/>
  <rect x="38" y="76" width="11" height="10" rx="2.5" fill="#ffb800" opacity="0.3"/>
  <rect x="12" y="102" width="104" height="5" rx="2.5" fill="#4a4a4e"/>
  
    <path d="M88 14l16 9.5v19L88 52l-16-9.5v-19z" fill="none" stroke="url(#a)" stroke-width="3"/>
    <circle cx="88" cy="34" r="6" fill="url(#a)"/>
    <circle cx="72" cy="24" r="4" fill="url(#a)"/>
    <circle cx="104" cy="24" r="4" fill="url(#a)"/>
    <circle cx="88" cy="52" r="4" fill="url(#a)"/>
    <path d="M72 24l16 10 16-10M88 34v18" stroke="#2a2118" stroke-width="2" fill="none" opacity="0.6"/>
</svg>
