<svg xmlns="http://www.w3.org/2000/svg" viewBox="0 0 128 128" width="128" height="128">
  <defs>
    <linearGradient id="bg" x1="0" y1="0" x2="0" y2="1">
      <stop offset="0" stop-color="#2a2118"/>
      <stop offset="1" stop-color="#1c1c1e"/>
    </linearGradient>
    <linearGradient id="a" x1="0" y1="0" x2="1" y2="1">
      <stop offset="0" stop-color="#ffb800"/>
      <stop offset="1" stop-color="#ff8a00"/>
    </linearGradient>
  </defs>
  <rect width="128" height="128" rx="24" fill="url(#bg)"/>
  
  <circle cx="64" cy="98" r="34" fill="#ffb800" opacity="0.1"/>
  <rect x="26" y="30" width="13" height="30" rx="4" fill="#3a3a3c"/>
  <rect x="24" y="26" width="17" height="7" rx="3.5" fill="url(#a)"/>
  <path d="M16 100V60l12 9V60l12 9V54h60v46z" fill="#333336"/>
  <path d="M16 100V60l12 9V60l12 9V54h60v8H44v38z" fill="#3f3f43"/>
  <rect x="24" y="76" width="11" height="10" rx="2.5" fill="url(#a)" opacity="0.85"/>
  <rect x="38" y="76" width="11" height="10" rx="2.5" fill="#ffb800" opacity="0.3"/>
  <rect x="12" y="102" width="104" height="5" rx="2.5" fill="#4a4a4e"/>
  
    <circle cx="88" cy="34" r="17" fill="url(#a)"/>
    <circle cx="88" cy="34" r="10" fill="none" stroke="#1a1200" stroke-width="2.4" opacity="0.65"/>
    <rect x="83" y="27" width="10" height="2.6" rx="1.3" fill="#1a1200" opacity="0.7"/>
    <rect x="83" y="32.7" width="10" height="2.6" rx="1.3" fill="#1a1200" opacity="0.7"/>
    <rect x="83" y="38.4" width="10" height="2.6" rx="1.3" fill="#1a1200" opacity="0.7"/>
</svg>
